<?xml version="1.0" standalone="no"?>
<!DOCTYPE svg PUBLIC "-//W3C//DTD SVG 20010904//EN"
 "http://www.w3.org/TR/2001/REC-SVG-20010904/DTD/svg10.dtd">
<svg version="1.0" xmlns="http://www.w3.org/2000/svg"
 width="800.000000pt" height="800.000000pt" viewBox="0 0 800.000000 800.000000"
 preserveAspectRatio="xMidYMid meet">
<metadata>
Created by potrace 1.14, written by Peter Selinger 2001-2017
</metadata>
<g transform="translate(0.000000,800.000000) scale(0.100000,-0.100000)"
fill="#000000" stroke="none">
<path d="M0 4000 l0 -4000 4000 0 4000 0 0 4000 0 4000 -4000 0 -4000 0 0
-4000z m4113 432 c576 -867 1052 -1584 1057 -1592 5 -8 12 -12 15 -8 3 3 -2
145 -11 314 -14 249 -18 555 -21 1587 l-5 1277 326 0 326 0 0 -2015 0 -2015
-434 0 c-387 0 -435 2 -440 16 -5 13 -2109 3189 -2122 3203 -15 16 -15 -35 0
-226 32 -423 36 -610 36 -1795 l0 -1198 -320 0 -320 0 0 2015 0 2015 433 -1
432 0 1048 -1577z"/>
</g>
</svg>
