<?xml version="1.0" standalone="no"?>
<!DOCTYPE svg PUBLIC "-//W3C//DTD SVG 20010904//EN"
 "http://www.w3.org/TR/2001/REC-SVG-20010904/DTD/svg10.dtd">
<svg version="1.0" xmlns="http://www.w3.org/2000/svg"
 width="2000.000000pt" height="2000.000000pt" viewBox="0 0 2000.000000 2000.000000"
 preserveAspectRatio="xMidYMid meet">
<metadata>
Created by potrace 1.14, written by Peter Selinger 2001-2017
</metadata>
<g transform="translate(0.000000,2000.000000) scale(0.100000,-0.100000)"
fill="#000000" stroke="none">
<path d="M0 13590 c0 -4267 3 -6410 10 -6410 6 0 10 4 10 9 0 5 6 16 13 23 7
7 32 41 56 76 24 34 48 62 52 62 5 0 9 5 9 10 0 6 23 40 50 75 28 36 48 65 45
65 -3 0 3 9 13 19 22 25 33 39 62 81 14 19 32 42 41 53 9 10 34 43 55 75 21
31 45 65 54 74 32 36 39 46 33 52 -4 3 -2 6 3 6 6 0 41 43 79 96 39 52 78 105
88 117 10 12 26 34 35 49 9 16 20 28 24 28 4 0 8 5 8 10 0 6 8 18 18 28 9 10
24 29 32 41 15 23 61 85 79 107 4 5 29 39 55 75 25 35 52 71 59 79 7 8 38 49
67 90 30 41 63 84 72 94 10 11 18 23 18 27 0 4 6 14 13 21 7 7 40 49 73 93 32
44 62 82 67 83 4 2 7 10 7 18 0 8 3 14 8 14 4 0 27 29 51 65 24 36 52 72 63
81 10 10 18 23 18 30 0 7 4 14 8 16 5 2 69 84 142 183 73 99 164 221 202 271
37 51 68 95 68 99 0 4 6 13 14 19 16 13 136 172 136 180 0 3 8 14 18 24 30 32
52 62 46 62 -3 0 10 15 29 34 20 19 33 37 30 40 -4 3 2 6 12 6 10 0 16 2 13 5
-6 6 60 75 72 75 4 0 11 7 14 16 3 8 10 13 15 10 5 -3 11 1 15 9 3 8 13 15 21
15 9 0 14 4 11 8 -3 5 12 18 32 29 20 11 67 36 105 57 37 20 67 34 67 30 0 -3
6 -1 14 5 13 11 57 27 100 36 11 3 22 8 25 12 3 5 15 9 26 9 11 1 34 4 51 8
103 20 278 27 323 12 15 -5 21 -5 17 2 -3 5 11 4 31 -3 21 -7 46 -11 55 -10
10 2 18 0 18 -6 0 -5 14 -9 30 -9 17 0 30 -4 30 -8 0 -7 16 -11 58 -14 6 -1
12 -5 12 -10 0 -4 9 -8 20 -8 11 0 20 -4 20 -10 0 -5 7 -10 15 -10 13 0 31 -9
106 -52 13 -7 28 -17 35 -23 6 -5 22 -17 34 -25 32 -21 110 -91 134 -119 12
-13 31 -35 44 -47 13 -13 20 -24 16 -24 -4 0 5 -11 20 -25 14 -13 26 -31 26
-40 0 -9 4 -13 10 -10 5 3 10 -1 10 -9 0 -9 4 -16 10 -16 5 0 7 -7 4 -15 -4
-8 -2 -15 3 -15 4 0 17 -17 28 -37 11 -21 22 -40 25 -43 3 -3 20 -34 39 -70
19 -36 37 -67 40 -70 3 -3 17 -27 31 -55 14 -27 31 -56 38 -63 6 -7 12 -19 12
-27 0 -7 3 -15 8 -17 4 -1 16 -21 27 -43 11 -22 37 -69 59 -104 36 -61 49 -83
112 -198 14 -27 30 -52 34 -58 4 -5 21 -35 38 -65 16 -30 40 -73 52 -95 13
-22 37 -65 53 -95 17 -30 33 -57 36 -60 4 -3 24 -40 46 -82 22 -43 43 -78 48
-78 4 0 7 -9 7 -19 0 -10 7 -21 15 -25 8 -3 15 -15 15 -26 0 -11 5 -20 10 -20
6 0 10 -4 10 -9 0 -7 67 -131 107 -196 7 -11 16 -27 20 -35 4 -8 22 -42 41
-75 19 -33 50 -87 69 -120 19 -33 37 -68 40 -78 3 -9 9 -17 14 -17 5 0 9 -4 9
-9 0 -8 125 -234 150 -271 6 -8 17 -28 26 -45 8 -16 28 -52 45 -80 16 -27 33
-58 36 -67 3 -10 8 -18 12 -18 4 0 13 -16 21 -35 8 -19 17 -35 22 -35 4 0 8
-5 8 -10 0 -6 50 -99 112 -208 62 -108 121 -214 131 -234 11 -21 22 -38 25
-38 3 0 26 21 50 47 40 44 129 139 338 362 45 47 94 100 108 116 34 37 211
225 291 310 33 34 101 106 150 160 50 54 117 126 150 160 184 193 325 347 325
358 0 4 7 7 15 7 8 0 15 3 15 8 0 4 29 39 65 77 36 39 65 74 65 78 0 5 4 5 10
2 6 -3 10 -3 10 2 0 4 24 33 53 64 28 31 104 111 167 179 63 68 133 142 155
166 22 23 85 90 140 149 55 59 126 135 158 169 31 33 88 94 125 133 37 40 93
100 125 133 31 32 57 64 57 70 0 5 7 10 15 10 8 0 15 3 15 8 0 4 28 36 62 72
33 36 111 118 172 184 61 65 130 138 153 162 23 24 41 44 39 44 -1 0 27 31 63
68 58 60 214 227 336 357 22 24 94 101 160 171 66 70 143 153 172 183 28 31
77 83 107 115 31 33 56 63 56 68 0 4 7 8 15 8 8 0 15 4 15 9 0 5 24 33 53 64
134 140 197 210 197 219 0 5 5 6 10 3 6 -3 10 -2 10 3 0 5 32 41 70 81 39 40
70 74 70 75 0 2 41 44 90 95 50 51 90 95 90 97 0 2 24 28 52 57 29 30 96 100
148 157 109 117 152 163 260 277 43 45 89 95 101 112 13 17 29 31 36 31 7 0
13 5 13 10 0 6 17 27 38 48 20 21 80 84 132 141 52 56 118 126 145 155 28 30
95 102 150 161 55 59 127 135 160 170 33 35 103 109 155 166 52 56 121 129
153 162 31 33 57 61 57 62 0 2 21 25 48 52 26 27 94 100 152 162 58 62 130
139 160 171 49 51 189 201 294 315 36 38 197 210 281 299 40 43 195 208 355
379 47 50 104 110 126 134 23 24 40 43 38 43 -3 0 20 24 51 53 30 30 55 60 55
67 0 7 3 11 6 8 3 -4 22 12 42 35 75 83 201 205 206 199 3 -3 6 0 6 6 0 7 5
12 10 12 6 0 19 8 29 18 33 29 50 42 57 42 3 0 18 9 34 20 15 11 29 17 32 14
3 -2 11 2 18 11 7 8 20 15 29 15 9 0 21 4 26 8 21 18 121 49 225 69 21 3 127
13 165 14 44 1 159 -12 175 -21 12 -7 20 -7 20 -1 0 6 15 4 35 -5 19 -8 35
-11 35 -8 0 4 6 2 13 -3 6 -6 33 -16 60 -23 26 -7 47 -16 47 -19 0 -4 10 -8
22 -8 13 -1 24 -7 26 -13 2 -5 12 -10 23 -10 10 0 19 -4 19 -10 0 -5 5 -10 10
-10 10 0 83 -44 107 -65 6 -5 26 -21 44 -35 46 -35 169 -158 169 -169 0 -5 3
-11 8 -13 12 -5 72 -86 72 -97 0 -6 3 -11 8 -11 4 0 28 -39 52 -87 25 -49 49
-91 53 -94 5 -3 8 -9 7 -13 -2 -11 42 -100 54 -108 6 -4 8 -8 4 -8 -3 0 14
-37 38 -82 24 -45 44 -85 44 -90 0 -8 21 -49 30 -58 3 -3 79 -153 170 -335 91
-181 168 -332 173 -333 4 -2 5 -7 2 -12 -3 -4 2 -13 10 -20 8 -7 15 -20 15
-29 0 -9 9 -27 20 -41 11 -14 20 -31 20 -38 0 -7 11 -30 25 -52 14 -22 23 -40
19 -40 -3 0 4 -13 15 -29 12 -16 21 -35 21 -43 0 -8 4 -18 9 -24 15 -14 161
-305 161 -319 0 -7 7 -15 15 -19 8 -3 15 -11 15 -17 0 -10 35 -82 219 -447 71
-141 53 -136 151 -42 26 25 91 86 145 135 152 141 252 235 318 298 33 31 64
57 69 57 5 0 6 5 3 10 -3 6 -2 10 4 10 5 0 25 15 44 33 19 17 85 79 147 137
62 58 130 121 150 140 20 19 83 78 140 130 57 52 126 118 155 145 29 28 91 86
139 130 48 44 116 107 151 140 35 33 102 96 150 140 48 44 104 96 124 115 21
19 86 80 145 135 59 55 134 125 166 155 32 30 104 98 161 150 56 52 130 121
163 152 97 91 147 137 240 223 48 44 118 109 155 145 38 36 110 103 160 150
220 203 402 373 458 428 24 23 46 42 48 42 1 0 40 36 86 80 45 44 84 80 85 80
1 0 23 20 48 44 l46 44 0 1906 0 1906 -10000 0 -10000 0 0 -6410z"/>
<path d="M19916 13377 c-43 -39 -116 -108 -162 -153 -46 -44 -84 -79 -84 -77
0 1 -20 -16 -44 -40 -62 -60 -167 -158 -204 -188 -17 -15 -28 -30 -25 -33 4
-3 2 -6 -3 -6 -5 0 -30 -19 -56 -42 -135 -126 -287 -268 -325 -305 -24 -23
-43 -40 -43 -39 0 2 -24 -19 -53 -48 -29 -28 -74 -70 -99 -93 -25 -23 -43 -44
-40 -47 3 -3 0 -6 -7 -6 -7 0 -34 -20 -60 -44 -25 -25 -72 -70 -104 -100 -32
-31 -62 -56 -67 -56 -6 0 -10 -7 -10 -15 0 -8 -4 -15 -9 -15 -5 0 -29 -19 -53
-42 -127 -121 -240 -223 -248 -226 -6 -2 -8 -8 -4 -13 3 -5 0 -9 -5 -9 -6 0
-35 -24 -65 -52 -30 -29 -96 -91 -146 -138 -51 -47 -109 -101 -130 -120 -21
-19 -83 -78 -140 -130 -56 -52 -131 -123 -168 -157 -36 -35 -67 -63 -68 -63
-2 0 -35 -31 -75 -69 -39 -39 -104 -99 -143 -135 -39 -35 -94 -86 -122 -113
-83 -78 -256 -239 -295 -275 -141 -130 -243 -225 -253 -234 -6 -6 -33 -27 -61
-48 -27 -21 -52 -41 -55 -45 -3 -4 -26 -17 -52 -31 -26 -13 -44 -28 -41 -34 3
-5 2 -7 -3 -3 -5 3 -25 -2 -44 -11 -73 -32 -127 -51 -160 -56 -9 -1 -20 -5
-27 -9 -12 -8 -75 -20 -113 -21 -14 -1 -29 -4 -35 -7 -13 -7 -192 -3 -230 5
-16 4 -48 9 -70 12 -22 4 -48 10 -57 15 -10 6 -18 7 -18 4 0 -3 -13 1 -29 9
-16 9 -31 12 -35 9 -3 -4 -6 -1 -6 6 0 7 -4 10 -10 6 -9 -5 -18 -2 -69 24 -61
32 -99 55 -128 78 -18 13 -33 22 -33 19 0 -3 -19 11 -41 32 -81 72 -179 178
-179 192 0 4 -7 13 -15 20 -9 7 -13 15 -11 17 3 3 -4 14 -14 25 -10 11 -42 68
-72 126 -29 59 -56 108 -60 110 -5 2 -8 9 -8 15 0 11 -100 217 -110 227 -3 3
-16 30 -30 60 -14 30 -27 57 -30 60 -3 3 -75 145 -160 315 -85 171 -157 312
-160 315 -9 9 -44 85 -42 93 1 4 -3 7 -10 7 -6 0 -8 3 -5 6 4 4 -2 19 -13 34
-11 16 -20 34 -20 42 0 8 -4 18 -9 24 -15 15 -180 344 -172 344 3 0 1 4 -4 8
-6 4 -44 75 -85 157 -41 83 -78 153 -83 156 -5 3 -8 9 -7 13 1 5 -147 304
-155 314 -3 3 -63 -59 -300 -313 -131 -141 -167 -179 -262 -280 -40 -42 -73
-80 -73 -86 0 -6 -4 -7 -10 -4 -5 3 -10 2 -10 -2 0 -5 -32 -42 -71 -83 -39
-41 -108 -115 -152 -163 -45 -49 -117 -125 -159 -170 -43 -45 -78 -85 -78 -90
0 -4 -4 -5 -10 -2 -5 3 -10 2 -10 -4 0 -5 -21 -32 -47 -60 -27 -27 -86 -90
-133 -141 -47 -50 -107 -115 -135 -144 -50 -53 -119 -127 -315 -336 -58 -62
-132 -141 -165 -176 -33 -35 -100 -107 -150 -160 -49 -54 -117 -126 -151 -161
-33 -35 -59 -63 -58 -63 1 0 -23 -27 -54 -59 -119 -123 -182 -193 -182 -202 0
-5 -7 -9 -15 -9 -8 0 -15 -3 -15 -7 0 -5 -31 -40 -68 -80 -37 -39 -116 -124
-177 -189 -60 -65 -128 -137 -150 -160 -38 -40 -204 -217 -277 -295 -158 -170
-249 -268 -283 -304 -73 -77 -189 -200 -285 -303 -52 -57 -125 -135 -162 -174
-38 -40 -68 -76 -68 -80 0 -4 -7 -8 -15 -8 -8 0 -15 -4 -15 -8 0 -5 -26 -36
-58 -69 -31 -34 -98 -105 -148 -160 -51 -54 -114 -121 -140 -149 -27 -28 -94
-100 -149 -159 -55 -59 -120 -129 -145 -155 -64 -68 -247 -263 -300 -320 -25
-27 -91 -98 -147 -157 -55 -59 -123 -131 -150 -160 -188 -202 -265 -283 -310
-331 -29 -30 -53 -56 -53 -57 0 -2 -30 -35 -67 -73 -38 -39 -99 -105 -138
-147 -38 -42 -108 -116 -155 -165 -182 -192 -199 -210 -197 -210 2 0 -36 -40
-83 -90 -75 -79 -199 -210 -301 -321 -69 -74 -266 -284 -314 -334 -27 -29 -91
-97 -142 -152 -51 -55 -114 -123 -140 -150 -26 -28 -86 -92 -133 -142 -47 -51
-114 -123 -150 -161 -36 -38 -108 -114 -160 -170 -135 -145 -240 -250 -250
-250 -4 0 -18 -11 -31 -25 -13 -13 -30 -25 -36 -25 -7 0 -13 -4 -13 -9 0 -4
-22 -19 -50 -32 -27 -13 -50 -27 -50 -30 0 -4 -20 -13 -45 -20 -25 -7 -45 -17
-45 -22 0 -5 -7 -7 -15 -4 -8 4 -17 2 -19 -2 -5 -7 -57 -22 -69 -20 -1 0 -15
-5 -31 -11 -17 -6 -50 -14 -75 -17 -71 -9 -300 -9 -356 1 -27 4 -58 8 -67 9
-10 1 -18 4 -18 8 0 4 -8 6 -17 4 -10 -1 -23 1 -29 6 -6 5 -23 10 -38 11 -14
1 -26 5 -26 9 0 6 -31 17 -68 25 -8 1 -22 10 -32 19 -10 9 -24 18 -32 19 -14
2 -75 38 -95 55 -7 6 -15 11 -18 11 -5 0 -16 9 -84 70 -24 22 -48 40 -53 40
-4 0 -7 4 -5 8 1 5 -15 26 -36 46 -20 21 -37 42 -37 46 0 5 -6 15 -12 22 -20
21 -65 90 -79 121 -7 15 -17 27 -22 27 -6 0 -7 3 -4 6 4 4 -2 19 -12 33 -10
14 -31 51 -48 81 -31 56 -41 74 -112 196 -22 39 -41 76 -41 83 0 6 -4 11 -8
11 -5 0 -14 16 -22 35 -8 19 -17 35 -22 35 -4 0 -8 4 -8 9 0 6 -16 37 -35 70
-20 33 -36 64 -37 68 -1 5 -8 14 -15 21 -7 7 -13 20 -13 28 0 8 -4 14 -10 14
-5 0 -10 6 -10 14 0 8 -6 21 -13 28 -7 7 -13 15 -13 18 0 3 -12 25 -26 50
-152 266 -228 404 -228 411 0 5 -4 9 -10 9 -5 0 -10 4 -10 9 0 5 -23 48 -50
96 -28 48 -50 91 -50 96 0 5 -3 9 -8 9 -4 0 -15 17 -25 38 -10 20 -31 60 -48
87 -16 28 -33 57 -36 65 -4 8 -9 17 -12 20 -3 3 -16 25 -29 50 -32 61 -56 104
-62 110 -3 3 -14 23 -25 45 -11 22 -22 42 -25 45 -3 3 -11 16 -18 30 -7 14
-20 39 -30 55 -10 17 -32 55 -49 85 -37 68 -90 160 -103 180 -6 8 -14 24 -19
35 -5 11 -32 61 -61 110 -29 50 -65 113 -80 140 -15 28 -41 74 -59 103 -17 29
-31 57 -31 61 0 5 -6 13 -13 19 -10 8 -27 -8 -72 -70 -33 -45 -66 -87 -73 -94
-6 -7 -12 -16 -12 -19 0 -4 -10 -19 -23 -34 -12 -15 -31 -40 -42 -55 -22 -31
-70 -96 -83 -111 -4 -5 -19 -26 -32 -45 -14 -19 -29 -40 -35 -46 -5 -7 -19
-24 -30 -40 -11 -15 -30 -40 -43 -55 -12 -15 -22 -30 -22 -34 0 -3 -6 -13 -13
-20 -20 -23 -30 -36 -107 -140 -41 -55 -78 -101 -82 -103 -4 -2 -8 -7 -8 -12
0 -6 -137 -193 -241 -330 -11 -14 -56 -74 -100 -135 -44 -60 -89 -120 -100
-133 -10 -12 -19 -26 -19 -31 0 -5 -7 -11 -15 -15 -8 -3 -15 -12 -15 -20 0 -8
-4 -16 -8 -18 -4 -1 -36 -41 -70 -88 -34 -47 -73 -98 -87 -114 -14 -16 -25
-33 -25 -37 0 -4 -6 -14 -13 -21 -7 -7 -26 -31 -42 -53 -17 -22 -36 -46 -43
-53 -6 -7 -12 -20 -12 -28 0 -8 -4 -13 -9 -10 -5 3 -11 0 -14 -7 -2 -6 -25
-40 -51 -73 -25 -34 -46 -67 -46 -73 0 -6 -4 -11 -9 -11 -5 0 -26 -25 -46 -55
-21 -30 -43 -55 -48 -55 -6 0 -7 -3 -4 -7 4 -4 -3 -18 -16 -32 -13 -14 -68
-87 -122 -161 -55 -74 -104 -138 -110 -142 -6 -5 -7 -8 0 -8 6 0 5 -4 -1 -8
-12 -7 -84 -101 -132 -172 -14 -19 -31 -39 -38 -43 -8 -4 -14 -12 -14 -17 0
-11 -91 -133 -102 -138 -5 -2 -8 -8 -8 -14 0 -5 -6 -16 -13 -23 -16 -19 -24
-29 -76 -100 -25 -33 -49 -63 -55 -67 -7 -5 -7 -8 -1 -8 6 0 2 -5 -8 -11 -9
-6 -15 -14 -12 -20 4 -5 2 -9 -3 -9 -5 0 -22 -19 -38 -42 -28 -42 -49 -69 -69
-92 -6 -6 -19 -24 -29 -41 -23 -35 -26 -40 -66 -85 -16 -19 -30 -39 -30 -44 0
-5 -10 -17 -22 -27 -11 -11 -18 -19 -14 -19 4 0 1 -6 -6 -14 -7 -8 -22 -26
-33 -42 -11 -15 -26 -33 -33 -40 -6 -7 -12 -17 -12 -22 0 -6 -4 -12 -8 -14 -4
-1 -18 -17 -30 -35 l-22 -31 0 -1906 0 -1906 10000 0 10000 0 0 6725 c0 3699
-1 6725 -2 6725 -2 0 -38 -33 -82 -73z"/>
</g>
</svg>
