<?xml version="1.0" standalone="no"?>
<!DOCTYPE svg PUBLIC "-//W3C//DTD SVG 20010904//EN"
 "http://www.w3.org/TR/2001/REC-SVG-20010904/DTD/svg10.dtd">
<svg version="1.0" xmlns="http://www.w3.org/2000/svg"
 width="800.000000pt" height="800.000000pt" viewBox="0 0 800.000000 800.000000"
 preserveAspectRatio="xMidYMid meet">
<metadata>
Created by potrace 1.14, written by Peter Selinger 2001-2017
</metadata>
<g transform="translate(0.000000,800.000000) scale(0.100000,-0.100000)"
fill="#000000" stroke="none">
<path d="M4200 7810 c-167 -33 -271 -200 -215 -347 31 -81 116 -157 197 -177
35 -8 596 -16 2318 -32 360 -3 658 -9 663 -13 7 -7 18 -545 37 -1856 6 -423
15 -810 19 -858 10 -106 41 -163 114 -213 64 -44 117 -58 199 -51 110 9 189
61 234 153 l27 56 -6 491 c-7 451 -33 2074 -40 2452 -3 156 -4 161 -32 215
-35 64 -108 123 -173 140 -26 6 -180 13 -381 15 -541 7 -1268 14 -1976 21
-363 3 -725 7 -805 8 -80 1 -161 -1 -180 -4z"/>
<path d="M2300 4245 l0 -2015 321 0 320 0 -4 1298 c-4 1047 -8 1336 -20 1497
-33 428 -32 408 -20 412 5 2 488 -719 1073 -1602 l1065 -1605 433 0 432 0 0
2015 0 2015 -322 -2 -323 -3 0 -1215 c0 -822 4 -1296 13 -1465 7 -137 15 -307
19 -377 3 -74 2 -128 -3 -128 -5 0 -486 718 -1069 1595 l-1060 1595 -427 0
-428 0 0 -2015z"/>
<path d="M512 5865 c-80 -25 -169 -82 -213 -134 -16 -20 -44 -65 -62 -101 -30
-60 -32 -73 -36 -190 -2 -69 4 -564 14 -1100 9 -536 27 -1596 39 -2355 23
-1366 23 -1381 45 -1436 32 -83 76 -144 140 -192 115 -88 179 -105 407 -107
242 -2 756 -7 1419 -15 303 -3 773 -8 1045 -10 272 -3 680 -7 905 -10 1736
-18 1697 -18 1773 4 95 29 150 61 211 126 92 97 135 229 113 348 -17 93 -63
177 -130 238 -47 43 -133 95 -177 106 -93 23 -64 22 -675 28 -173 2 -614 6
-980 10 -366 4 -795 8 -955 10 -159 2 -603 6 -985 10 -382 4 -808 8 -946 9
-138 2 -255 5 -261 9 -6 4 -12 175 -16 469 -4 255 -14 857 -22 1338 -9 481
-22 1264 -30 1740 -15 929 -14 915 -68 1004 -113 184 -343 268 -555 201z"/>
</g>
</svg>
