<?xml version="1.0" standalone="no"?>
<!DOCTYPE svg PUBLIC "-//W3C//DTD SVG 20010904//EN"
 "http://www.w3.org/TR/2001/REC-SVG-20010904/DTD/svg10.dtd">
<svg version="1.0" xmlns="http://www.w3.org/2000/svg"
 width="800.000000pt" height="800.000000pt" viewBox="0 0 800.000000 800.000000"
 preserveAspectRatio="xMidYMid meet">
<metadata>
Created by potrace 1.14, written by Peter Selinger 2001-2017
</metadata>
<g transform="translate(0.000000,800.000000) scale(0.100000,-0.100000)"
fill="#000000" stroke="none">
<path d="M3778 7996 c-1 -2 -43 -6 -93 -10 -106 -7 -155 -13 -250 -27 -38 -6
-86 -12 -105 -15 -19 -2 -78 -14 -130 -25 -52 -11 -103 -22 -114 -24 -130 -27
-386 -107 -556 -175 -448 -177 -865 -438 -1232 -771 l-40 -36 198 -167 c110
-92 208 -175 219 -184 11 -10 90 -76 175 -147 85 -71 157 -132 160 -135 3 -4
93 -79 200 -169 183 -153 244 -205 345 -291 23 -19 63 -53 89 -75 27 -22 54
-44 60 -50 6 -5 65 -55 131 -110 66 -55 122 -102 125 -105 3 -3 46 -39 95 -80
50 -40 108 -90 130 -109 23 -20 63 -54 90 -76 27 -22 99 -82 159 -133 61 -52
118 -99 126 -106 8 -6 47 -39 85 -72 78 -66 254 -215 445 -374 69 -58 130
-109 136 -115 6 -5 132 -112 280 -236 395 -332 922 -775 974 -819 25 -21 79
-67 121 -102 159 -133 324 -272 329 -278 3 -3 73 -61 155 -130 83 -68 182
-151 221 -184 81 -70 74 -64 281 -237 87 -73 212 -179 279 -235 75 -64 125
-100 132 -95 9 5 -16 69 -88 225 -55 120 -100 219 -100 221 0 2 -22 50 -49
107 -26 57 -52 115 -56 128 -4 14 -11 30 -15 35 -4 6 -33 69 -65 140 -32 72
-68 153 -80 180 -52 114 -181 408 -225 510 -117 272 -143 332 -155 360 -24 52
-320 784 -487 1200 -55 138 -106 264 -113 280 -7 17 -31 75 -53 130 -22 55
-83 206 -135 335 -52 129 -125 309 -161 400 -37 91 -71 174 -76 185 -5 11 -45
112 -90 225 -44 113 -86 219 -94 235 -7 17 -21 50 -31 75 -10 25 -23 59 -30
75 -7 17 -41 100 -75 185 -114 285 -211 525 -225 555 -7 17 -16 40 -20 53 -3
12 -13 23 -21 23 -8 1 -17 2 -21 3 -5 2 -44 6 -88 10 -44 5 -93 10 -110 13
-33 5 -551 13 -557 9z"/>
<path d="M6120 7386 c0 -4 147 -372 160 -401 5 -11 47 -114 94 -230 188 -468
379 -941 389 -965 6 -14 11 -27 12 -30 1 -3 7 -18 14 -35 7 -16 71 -176 143
-355 147 -367 175 -437 188 -465 5 -11 80 -195 166 -410 86 -214 161 -401 167
-415 5 -14 11 -29 13 -35 1 -5 64 -161 139 -345 75 -184 166 -410 203 -502 37
-92 70 -164 73 -160 5 7 23 83 35 148 3 16 9 45 14 64 4 19 11 57 15 83 3 27
8 59 11 70 47 242 54 783 13 1092 -50 387 -146 742 -292 1081 -52 120 -135
289 -184 372 -24 41 -43 76 -43 78 0 10 -149 236 -214 324 -146 200 -215 280
-411 475 -166 165 -208 205 -275 256 -24 19 -50 40 -58 46 -43 41 -355 263
-368 263 -2 0 -4 -2 -4 -4z"/>
<path d="M653 5761 c-6 -3 24 -77 74 -181 103 -211 188 -389 255 -530 56 -118
71 -151 199 -427 17 -38 58 -129 91 -203 33 -74 70 -157 83 -185 73 -157 247
-576 490 -1180 86 -214 163 -403 170 -420 7 -16 29 -73 50 -125 21 -52 44
-108 51 -125 7 -16 70 -172 139 -345 70 -173 188 -466 263 -650 74 -184 142
-353 149 -374 8 -22 22 -58 33 -80 10 -23 86 -212 170 -421 84 -209 157 -385
164 -391 10 -10 155 -45 246 -59 19 -3 42 -8 50 -10 8 -2 38 -7 66 -10 28 -3
59 -7 70 -9 10 -2 51 -7 89 -11 39 -4 86 -9 105 -12 64 -9 543 -11 635 -2 187
17 212 20 275 30 36 6 81 12 100 15 19 2 78 14 130 25 52 11 104 22 114 25 52
10 190 48 261 70 44 14 87 27 95 29 28 6 243 90 340 132 280 123 689 368 852
512 l28 24 -33 27 c-17 15 -151 128 -297 251 -146 123 -305 257 -354 298 -102
86 -238 201 -412 346 -65 55 -124 104 -130 110 -6 5 -33 29 -60 51 -117 98
-343 290 -392 331 -29 26 -65 55 -80 67 -15 11 -29 23 -32 26 -6 6 -277 235
-420 355 -52 44 -106 89 -120 101 -58 50 -115 99 -295 249 -104 88 -195 164
-201 170 -6 5 -33 28 -59 50 -27 22 -126 105 -220 185 -95 80 -250 210 -345
290 -95 80 -178 150 -184 155 -6 6 -54 46 -106 90 -52 44 -100 84 -106 90 -6
5 -33 28 -60 50 -26 22 -165 139 -309 260 -143 121 -271 229 -284 240 -14 11
-41 34 -60 51 -20 17 -94 79 -166 139 -71 60 -132 112 -135 115 -3 3 -30 25
-60 49 -30 25 -59 49 -65 55 -5 6 -32 29 -60 51 -27 22 -55 45 -62 51 -6 6
-91 78 -189 160 -98 82 -214 180 -258 218 -275 233 -260 222 -283 207z"/>
<path d="M7 4268 c-6 -71 0 -560 7 -623 15 -126 27 -222 31 -245 60 -377 151
-688 300 -1024 157 -355 380 -706 635 -998 82 -95 380 -391 386 -385 3 3 1 13
-5 24 -6 10 -77 182 -157 383 -80 201 -152 379 -159 395 -8 17 -35 84 -60 150
-26 66 -53 134 -60 150 -8 17 -28 66 -45 110 -18 44 -36 89 -41 100 -4 11 -33
81 -63 155 -64 161 -302 751 -393 975 -35 87 -110 272 -165 410 -55 137 -108
268 -118 290 -9 22 -30 73 -45 113 -16 39 -32 72 -36 72 -4 0 -9 -24 -12 -52z"/>
</g>
</svg>
